<svg xmlns="http://www.w3.org/2000/svg" viewBox="0 0 24 24" fill="currentColor" class="w-6 h-6">
  <path d="M12 2.2c3.2 0 3.6 0 4.9.1 1.3.1 2.2.3 3 1 .8.8 1 1.7 1 3 .1 1.3.1 1.7.1 4.9s0 3.6-.1 4.9c-.1 1.3-.3 2.2-1 3-.8.8-1.7 1-3 1-1.3.1-1.7.1-4.9.1s-3.6 0-4.9-.1c-1.3-.1-2.2-.3-3-1-.8-.8-1-1.7-1-3C2.2 15.6 2.2 15.2 2.2 12s0-3.6.1-4.9c.1-1.3.3-2.2 1-3 .8-.8 1.7-1 3-1C8.4 2.2 8.8 2.2 12 2.2zm0 1.8c-3.1 0-3.5 0-4.7.1-1.1.1-1.8.3-2.3.7-.5.5-.7 1.2-.7 2.3-.1 1.2-.1 1.6-.1 4.7s0 3.5.1 4.7c.1 1.1.3 1.8.7 2.3.5.5 1.2.7 2.3.7 1.2.1 1.6.1 4.7.1s3.5 0 4.7-.1c1.1-.1 1.8-.3 2.3-.7.5-.5.7-1.2.7-2.3.1-1.2.1-1.6.1-4.7s0-3.5-.1-4.7c-.1-1.1-.3-1.8-.7-2.3-.5-.5-1.2-.7-2.3-.7-1.2-.1-1.6-.1-4.7-.1zm0 3.8a4.2 4.2 0 110 8.4 4.2 4.2 0 010-8.4zm0 1.8a2.4 2.4 0 100 4.8 2.4 2.4 0 000-4.8zm4.8-2.3a1 1 0 110 2 1 1 0 010-2z"/>
</svg>
