<svg xmlns="http://www.w3.org/2000/svg" viewBox="0 0 24 24" fill="currentColor" class="w-6 h-6">
  <path d="M12 2a10 10 0 00-10 10 10 10 0 001.5 5.3l-1.6 4.6 4.8-1.5A10 10 0 0012 22a10 10 0 000-20zm0 18a8 8 0 01-4.2-1.2l-.3-.2-2.9.9.9-2.8-.2-.3A8 8 0 1112 20zm4.3-5.5c-.2-.1-1.2-.6-1.3-.7-.2-.1-.3-.1-.4.1-.1.1-.5.7-.6.8s-.2.2-.4.1a6.3 6.3 0 01-3-2.6c-.2-.4.2-.3.6-1 .1-.1 0-.3 0-.4s-.1-.3-.2-.5a4 4 0 01-.8-2.2c0-.5.3-1 .5-1.2.1-.2.3-.2.4-.2h.3c.1 0 .3 0 .4.3s.5 1.3.6 1.4c0 .1 0 .2-.1.3l-.4.6c-.1.1-.2.2-.1.3 0 .1.2.3.4.6.6.8 1.2 1.4 2.2 1.8.2.1.3 0 .4-.1l.7-.9c.1-.1.3-.2.4-.1.2 0 1.1.5 1.3.6.2.1.3.2.3.3 0 .1.1.9-.4 1.2-.4.3-.8.6-1.1.5z"/>
</svg>
